<?xml version="1.0" encoding="utf-8"?>
<!-- Generator: Adobe Illustrator 19.2.1, SVG Export Plug-In . SVG Version: 6.00 Build 0)  -->
<svg version="1.1" id="Layer_1" xmlns="http://www.w3.org/2000/svg" xmlns:xlink="http://www.w3.org/1999/xlink" x="0px" y="0px"
	 width="1133px" height="460px" viewBox="0 0 1133 460" enable-background="new 0 0 1133 460" xml:space="preserve">
<rect x="1" y="1" fill="none" stroke="#5B5B5B" stroke-width="1" stroke-miterlimit="10" width="1131" height="458"/>
<polyline fill="none" stroke="#5B5B5B" stroke-width="1" stroke-miterlimit="10" points="1,49 93,49 93,24 93,10 93,1 "/>
<polyline fill="none" stroke="#5B5B5B" stroke-width="1" stroke-miterlimit="10" points="93,49 124,49 124,188 "/>
<polyline fill="none" stroke="#5B5B5B" stroke-width="1" stroke-miterlimit="10" points="4,97 31,97 31,188 93,188 93,85 "/>
<line fill="none" stroke="#5B5B5B" stroke-width="1" stroke-miterlimit="10" x1="93" y1="97" x2="31" y2="97"/>
<line fill="none" stroke="#5B5B5B" stroke-width="1" stroke-miterlimit="10" x1="124" y1="153" x2="165" y2="153"/>
<line fill="none" stroke="#5B5B5B" stroke-width="1" stroke-miterlimit="10" x1="186" y1="153" x2="186" y2="1"/>
<polyline fill="none" stroke="#5B5B5B" stroke-width="1" stroke-miterlimit="10" points="278,1 278,153 371,153 "/>
<polyline fill="none" stroke="#5B5B5B" stroke-width="1" stroke-miterlimit="10" points="418,153 463,153 463,1 "/>
<line fill="none" stroke="#5B5B5B" stroke-width="1" stroke-miterlimit="10" x1="646" y1="153" x2="646" y2="1"/>
<line fill="none" stroke="#5B5B5B" stroke-width="1" stroke-miterlimit="10" x1="924" y1="153" x2="924" y2="1"/>
<polyline fill="none" stroke="#5B5B5B" stroke-width="1" stroke-miterlimit="10" points="463,82 418,82 418,132 "/>
<polyline fill="none" stroke="#5B5B5B" stroke-width="1" stroke-miterlimit="10" points="1016,1 1016,118.5 1016,255 1038,255 
	1038,119 1054,119 "/>
<polyline fill="none" stroke="#5B5B5B" stroke-width="1" stroke-miterlimit="10" points="1054,119 1054,71 1054,1 "/>
<polyline fill="none" stroke="#5B5B5B" stroke-width="1" stroke-miterlimit="10" points="1054,70 1078,70 1078,119 1132,119 "/>
<polyline fill="none" stroke="#5B5B5B" stroke-width="1" stroke-miterlimit="10" points="1132,276 1060,276 1060,380 1132,380 "/>
<polyline fill="none" stroke="#5B5B5B" stroke-width="1" stroke-miterlimit="10" points="1090,459 1090,433 1039,433 1039,276 
	1016,276 1016,459 "/>
<line fill="none" stroke="#5B5B5B" stroke-width="1" stroke-miterlimit="10" x1="924" y1="459" x2="924" y2="354"/>
<line fill="none" stroke="#5B5B5B" stroke-width="1" stroke-miterlimit="10" x1="831" y1="459" x2="831" y2="342"/>
<polyline fill="none" stroke="#5B5B5B" stroke-width="1" stroke-miterlimit="10" points="831,322 831,314 709,314 709,322 "/>
<polyline fill="none" stroke="#5B5B5B" stroke-width="1" stroke-miterlimit="10" points="709,459 709,342 646,342 646,459 "/>
<line fill="none" stroke="#5B5B5B" stroke-width="1" stroke-miterlimit="10" x1="646" y1="418" x2="709" y2="418"/>
<line fill="none" stroke="#5B5B5B" stroke-width="1" stroke-miterlimit="10" x1="709" y1="380" x2="646" y2="380"/>
<polyline fill="none" stroke="#5B5B5B" stroke-width="1" stroke-miterlimit="10" points="646,401 600,401 600,342 308,342 308,422 
	400,422 400,401 408.3,401 600,401 "/>
<line fill="none" stroke="#5B5B5B" stroke-width="1" stroke-miterlimit="10" x1="409" y1="342" x2="409" y2="401"/>
<line fill="none" stroke="#5B5B5B" stroke-width="1" stroke-miterlimit="10" x1="489" y1="342" x2="489" y2="401"/>
<line fill="none" stroke="#5B5B5B" stroke-width="1" stroke-miterlimit="10" x1="554" y1="342" x2="554" y2="401"/>
<line fill="none" stroke="#5B5B5B" stroke-width="1" stroke-miterlimit="10" x1="463" y1="459" x2="463" y2="401"/>
<line fill="none" stroke="#5B5B5B" stroke-width="1" stroke-miterlimit="10" x1="93" y1="459" x2="93" y2="309"/>
<polyline fill="none" stroke="#5B5B5B" stroke-width="1" stroke-miterlimit="10" points="1,309 155,309 155,288 "/>
<path fill="none" stroke="#5B5B5B" stroke-width="1" stroke-miterlimit="10" d="M155,176v54V176z"/>
<polyline fill="none" stroke="#5B5B5B" stroke-width="1" stroke-miterlimit="10" points="278,176 278,198 336,198 336,305 350,305 
	350,176 186,176 155,176 "/>
<polyline fill="none" stroke="#5B5B5B" stroke-width="1" stroke-miterlimit="10" points="155,200 186,200 186,176 "/>
<polygon fill="none" stroke="#5B5B5B" stroke-width="1" stroke-miterlimit="10" points="371,309 371,184 409,184 409,289.7 409,309 
	"/>
<line fill="none" stroke="#5B5B5B" stroke-width="1" stroke-miterlimit="10" x1="371" y1="288" x2="409" y2="288"/>
<line fill="none" stroke="#5B5B5B" stroke-width="1" stroke-miterlimit="10" x1="371" y1="270" x2="409" y2="270"/>
<line fill="none" stroke="#5B5B5B" stroke-width="1" stroke-miterlimit="10" x1="371" y1="252" x2="409" y2="252"/>
<line fill="none" stroke="#5B5B5B" stroke-width="1" stroke-miterlimit="10" x1="371" y1="234" x2="409" y2="234"/>
<line fill="none" stroke="#5B5B5B" stroke-width="1" stroke-miterlimit="10" x1="371" y1="211" x2="409" y2="211"/>
<polyline fill="none" stroke="#5B5B5B" stroke-width="1" stroke-miterlimit="10" points="409,184 466,184 466,309 409,309 "/>
<polygon fill="none" stroke="#5B5B5B" stroke-width="1" stroke-miterlimit="10" points="489,176 831,176 831,284 646,284 646,309 
	489,309 "/>
<line fill="none" stroke="#5B5B5B" stroke-width="1" stroke-miterlimit="10" x1="646" y1="284" x2="646" y2="176"/>
<polyline fill="none" stroke="#5B5B5B" stroke-width="1" stroke-miterlimit="10" points="709,284 709,230 709,176 "/>
<line fill="none" stroke="#5B5B5B" stroke-width="1" stroke-miterlimit="10" x1="646" y1="230" x2="709" y2="230"/>
<polygon fill="none" stroke="#5B5B5B" stroke-width="1" stroke-miterlimit="10" points="924,305 924,200 864,200 864,255 864,305 
	"/>
<line fill="none" stroke="#5B5B5B" stroke-width="1" stroke-miterlimit="10" x1="924" y1="255" x2="864" y2="255"/>
<polyline fill="none" stroke="#5B5B5B" stroke-width="1" stroke-miterlimit="10" points="924,200 984,200 984,305 924,305 "/>
<line fill="none" stroke="#5B5B5B" stroke-width="1" stroke-miterlimit="10" x1="400" y1="422" x2="400" y2="459"/>
</svg>
